<svg xmlns="http://www.w3.org/2000/svg" width="62.562" height="58.244"><defs><filter id="a" x="0" y="0" width="62.562" height="35.538" filterUnits="userSpaceOnUse"><feOffset dx="2" dy="3"/><feGaussianBlur result="blur"/><feFlood flood-opacity=".161"/><feComposite operator="in" in2="blur"/><feComposite in="SourceGraphic"/></filter><filter id="b" x="8.651" y="11.176" width="45.246" height="47.068" filterUnits="userSpaceOnUse"><feOffset dx="2" dy="3"/><feGaussianBlur result="blur-2"/><feFlood flood-opacity=".161"/><feComposite operator="in" in2="blur-2"/><feComposite in="SourceGraphic"/></filter></defs><g filter="url(#a)"><path data-name="Caminho 20" d="M0 27.632c.489-.574.942-1.2 1.474-1.712q5.676-5.464 11.378-10.888 4.362-4.161 8.733-8.3c1.93-1.841 3.843-3.706 5.788-5.527a4.124 4.124 0 015.841.024c2.941 2.785 5.857 5.6 8.786 8.407a2.75 2.75 0 00.27.2c.018-.266.04-.453.04-.641V1.944c0-1.372.373-1.8 1.555-1.8h6.526c1.116 0 1.513.455 1.513 1.738v16.574a1.279 1.279 0 00.416 1.034q3.728 3.516 7.432 7.063a8.306 8.306 0 01.806 1.078v.775c-.792 1.112-1.575 2.23-2.373 3.335-.687.953-1.3 1.037-2.149.236-2.258-2.139-4.5-4.3-6.747-6.445q-2.967-2.836-5.937-5.668l-6.123-5.841q-3.3-3.154-6.594-6.32c-.258-.248-.439-.256-.7 0q-3 2.908-6.042 5.794t-6.014 5.74l-6.042 5.774-6.751 6.445c-.26.248-.512.508-.788.731a1.059 1.059 0 01-1.718-.2C1.698 30.821.86 29.608.004 28.416z" fill="#33588c"/></g><g filter="url(#b)"><path data-name="Caminho 21" d="M35.083 55.204V38.749c-.214-.012-.371-.026-.528-.026q-4.278 0-8.56-.012c-.425 0-.542.129-.542.618.016 5.045.01 10.091.01 15.136v.784H11.355c-1.742 0-2.7-1.086-2.7-3.08V32.263a1.365 1.365 0 01.489-1.11c3.337-3.132 6.658-6.288 9.988-9.432q4.395-4.153 8.8-8.3c.78-.735 1.553-1.48 2.351-2.242 1.184 1.116 2.338 2.2 3.49 3.293l10.091 9.537q3.873 3.658 7.738 7.335a1.094 1.094 0 01.286.7q.02 10.2 0 20.4a2.51 2.51 0 01-2.417 2.786c-4.707.022-9.414 0-14.121 0a2.586 2.586 0 01-.267-.026z" fill="#33588c"/></g></svg>