<svg xmlns="http://www.w3.org/2000/svg" width="49.423" height="65.591"><defs><filter id="a" x="0" y="0" width="35.918" height="65.591" filterUnits="userSpaceOnUse"><feOffset dx="1" dy="3"/><feGaussianBlur result="blur"/><feFlood flood-opacity=".161"/><feComposite operator="in" in2="blur"/><feComposite in="SourceGraphic"/></filter><filter id="b" x="36.857" y="5.866" width="12.566" height="42.148" filterUnits="userSpaceOnUse"><feOffset dx="1" dy="3"/><feGaussianBlur result="blur-2"/><feFlood flood-opacity=".161"/><feComposite operator="in" in2="blur-2"/><feComposite in="SourceGraphic"/></filter><filter id="c" x="31.059" y="10.605" width="10.623" height="32.675" filterUnits="userSpaceOnUse"><feOffset dx="1" dy="3"/><feGaussianBlur result="blur-3"/><feFlood flood-opacity=".161"/><feComposite operator="in" in2="blur-3"/><feComposite in="SourceGraphic"/></filter><filter id="d" x="25.427" y="16.11" width="8.324" height="21.64" filterUnits="userSpaceOnUse"><feOffset dx="1" dy="3"/><feGaussianBlur result="blur-4"/><feFlood flood-opacity=".161"/><feComposite operator="in" in2="blur-4"/><feComposite in="SourceGraphic"/></filter></defs><g filter="url(#a)"><path data-name="Caminho 26" d="M18.713 1.326a4.206 4.206 0 011.172 4.043c-.4 2.995-.841 5.982-1.283 8.97a7 7 0 01-.359 1.33 2.743 2.743 0 01-2.85 1.979 60 60 0 01-2.969-.105 2.3 2.3 0 00-2.169 1.106 6.154 6.154 0 00-1.1 3.356 37.942 37.942 0 004.916 19.7 24.9 24.9 0 002.446 3.516 4.26 4.26 0 002.308 1.362 2.069 2.069 0 001.806-.309c.753-.53 1.522-1.04 2.278-1.567a2.934 2.934 0 014.2.294c.739.7 1.388 1.5 2.069 2.276q1.893 2.184 3.762 4.391c.32.376.626.768.916 1.168a4.119 4.119 0 01.929 3.676l-.544.99c-.647.668-1.247 1.392-1.951 1.992a11.889 11.889 0 01-10.76 2.782c-.807-.177-1.582-.5-2.372-.753q-.852-.472-1.708-.941c-.632-.491-1.285-.958-1.894-1.477a30.848 30.848 0 01-7.1-9.374A82.87 82.87 0 01.051 19.497a29.016 29.016 0 01.941-9.594c.265-.914.621-1.8.941-2.7l.941-1.71a4.246 4.246 0 00.3-.342A11.773 11.773 0 0114.685.085a24.821 24.821 0 013.07.7z" fill="#33588c"/></g><g filter="url(#b)"><path data-name="Caminho 27" d="M38.799 45.018c-.136-.038-.275-.07-.41-.113a2.178 2.178 0 01-.971-3.535c.643-.728 1.317-1.426 1.921-2.19a22.387 22.387 0 004.675-14.861 22.105 22.105 0 00-5.185-13.251c-.452-.544-.956-1.04-1.424-1.569a2.175 2.175 0 01.775-3.441 5.736 5.736 0 01.619-.188h.489a.9.9 0 00.132.043 2.181 2.181 0 011.155.6 26.69 26.69 0 017.779 17.155c.019.3.047.608.072.91V26.3a2.1 2.1 0 00-.034.239 25.888 25.888 0 01-.624 4.778 26.606 26.606 0 01-7.12 12.98 2.247 2.247 0 01-1.268.681.316.316 0 00-.09.039z" fill="#33588c"/></g><g filter="url(#c)"><path data-name="Caminho 28" d="M40.678 25.075a20.226 20.226 0 01-5.845 14.5 2.1 2.1 0 01-2.2.606 2.069 2.069 0 01-1.52-1.627 2.119 2.119 0 01.613-2.035 16.128 16.128 0 001.861-2.257 15.612 15.612 0 002.481-6.208 15.381 15.381 0 00.149-4.1 15.564 15.564 0 00-4.327-9.406 2.793 2.793 0 01-.783-1.26 2.192 2.192 0 011.023-2.378 2.142 2.142 0 012.57.284 19.082 19.082 0 012.969 3.719 19.506 19.506 0 012.765 7.623c.146.942.189 1.924.244 2.539z" fill="#33588c"/></g><g filter="url(#d)"><path data-name="Caminho 29" d="M32.753 25.71a12.015 12.015 0 01-3.574 8.364 2.177 2.177 0 11-3.146-3.01 7.879 7.879 0 002.167-3.99 7.771 7.771 0 00-1.934-7.028 2.865 2.865 0 01-.777-1.266 2.186 2.186 0 011.01-2.365 2.146 2.146 0 012.572.265 11.582 11.582 0 012.258 3.01 12.558 12.558 0 011.424 6.02z" fill="#33588c"/></g></svg>