<svg xmlns="http://www.w3.org/2000/svg" xmlns:xlink="http://www.w3.org/1999/xlink" width="49.423" height="65.591" viewBox="0 0 49.423 65.591">
  <defs>
    <filter id="Caminho_26" x="0" y="0" width="35.918" height="65.591" filterUnits="userSpaceOnUse">
      <feOffset dx="1" dy="3" input="SourceAlpha"/>
      <feGaussianBlur result="blur"/>
      <feFlood flood-opacity="0.161"/>
      <feComposite operator="in" in2="blur"/>
      <feComposite in="SourceGraphic"/>
    </filter>
    <filter id="Caminho_27" x="36.857" y="5.866" width="12.566" height="42.148" filterUnits="userSpaceOnUse">
      <feOffset dx="1" dy="3" input="SourceAlpha"/>
      <feGaussianBlur result="blur-2"/>
      <feFlood flood-opacity="0.161"/>
      <feComposite operator="in" in2="blur-2"/>
      <feComposite in="SourceGraphic"/>
    </filter>
    <filter id="Caminho_28" x="31.059" y="10.605" width="10.623" height="32.675" filterUnits="userSpaceOnUse">
      <feOffset dx="1" dy="3" input="SourceAlpha"/>
      <feGaussianBlur result="blur-3"/>
      <feFlood flood-opacity="0.161"/>
      <feComposite operator="in" in2="blur-3"/>
      <feComposite in="SourceGraphic"/>
    </filter>
    <filter id="Caminho_29" x="25.427" y="16.11" width="8.324" height="21.64" filterUnits="userSpaceOnUse">
      <feOffset dx="1" dy="3" input="SourceAlpha"/>
      <feGaussianBlur result="blur-4"/>
      <feFlood flood-opacity="0.161"/>
      <feComposite operator="in" in2="blur-4"/>
      <feComposite in="SourceGraphic"/>
    </filter>
  </defs>
  <g id="icon-contato" transform="translate(0 0)">
    <g transform="matrix(1, 0, 0, 1, 0, 0)" filter="url(#Caminho_26)">
      <path id="Caminho_26-2" data-name="Caminho 26" d="M905.313,367.516a4.206,4.206,0,0,1,1.172,4.043c-.4,2.995-.841,5.982-1.283,8.97a7,7,0,0,1-.359,1.33,2.743,2.743,0,0,1-2.85,1.979c-.99-.013-1.981-.043-2.969-.105a2.3,2.3,0,0,0-2.169,1.106,6.154,6.154,0,0,0-1.1,3.356,37.942,37.942,0,0,0,4.916,19.7,24.9,24.9,0,0,0,2.446,3.516,4.26,4.26,0,0,0,2.308,1.362,2.069,2.069,0,0,0,1.806-.309c.753-.53,1.522-1.04,2.278-1.567a2.934,2.934,0,0,1,4.2.294c.739.7,1.388,1.5,2.069,2.276q1.893,2.184,3.762,4.391c.32.376.626.768.916,1.168a4.119,4.119,0,0,1,.929,3.676l-.544.99c-.647.668-1.247,1.392-1.951,1.992a11.889,11.889,0,0,1-10.76,2.782c-.807-.177-1.582-.5-2.372-.753q-.852-.472-1.708-.941c-.632-.491-1.285-.958-1.894-1.477a30.848,30.848,0,0,1-7.1-9.374,82.87,82.87,0,0,1-8.405-30.234,29.016,29.016,0,0,1,.941-9.594c.265-.914.621-1.8.941-2.7l.941-1.71a4.246,4.246,0,0,0,.3-.342,11.773,11.773,0,0,1,11.511-5.066,24.821,24.821,0,0,1,3.07.7Z" transform="translate(-886.6 -366.19)" fill="#33588c"/>
    </g>
    <g transform="matrix(1, 0, 0, 1, 0, 0)" filter="url(#Caminho_27)">
      <path id="Caminho_27-2" data-name="Caminho 27" d="M1084.469,436.518c-.136-.038-.275-.07-.41-.113a2.178,2.178,0,0,1-.971-3.535c.643-.728,1.317-1.426,1.921-2.19a22.387,22.387,0,0,0,4.675-14.861,22.105,22.105,0,0,0-5.185-13.251c-.452-.544-.956-1.04-1.424-1.569a2.175,2.175,0,0,1,.775-3.441,5.736,5.736,0,0,1,.619-.188h.489a.9.9,0,0,0,.132.043,2.181,2.181,0,0,1,1.155.6,26.69,26.69,0,0,1,7.779,17.155c.019.3.047.608.072.91V417.8a2.1,2.1,0,0,0-.034.239,25.888,25.888,0,0,1-.624,4.778,26.606,26.606,0,0,1-7.12,12.98,2.247,2.247,0,0,1-1.268.681.316.316,0,0,0-.09.039Z" transform="translate(-1045.67 -391.5)" fill="#33588c"/>
    </g>
    <g transform="matrix(1, 0, 0, 1, 0, 0)" filter="url(#Caminho_28)">
      <path id="Caminho_28-2" data-name="Caminho 28" d="M1061.328,437.035a20.226,20.226,0,0,1-5.845,14.5,2.1,2.1,0,0,1-2.2.606,2.069,2.069,0,0,1-1.52-1.627,2.119,2.119,0,0,1,.613-2.035,16.128,16.128,0,0,0,1.861-2.257,15.612,15.612,0,0,0,2.481-6.208,15.381,15.381,0,0,0,.149-4.1,15.564,15.564,0,0,0-4.327-9.406,2.793,2.793,0,0,1-.783-1.26,2.192,2.192,0,0,1,1.023-2.378,2.142,2.142,0,0,1,2.57.284,19.082,19.082,0,0,1,2.969,3.719,19.506,19.506,0,0,1,2.765,7.623C1061.23,435.438,1061.273,436.42,1061.328,437.035Z" transform="translate(-1020.65 -411.96)" fill="#33588c"/>
    </g>
    <g transform="matrix(1, 0, 0, 1, 0, 0)" filter="url(#Caminho_29)">
      <path id="Caminho_29-2" data-name="Caminho 29" d="M1029.093,461.43a12.015,12.015,0,0,1-3.574,8.364,2.177,2.177,0,1,1-3.146-3.01,7.879,7.879,0,0,0,2.167-3.99,7.771,7.771,0,0,0-1.934-7.028,2.865,2.865,0,0,1-.777-1.266,2.186,2.186,0,0,1,1.01-2.365,2.146,2.146,0,0,1,2.572.265,11.582,11.582,0,0,1,2.258,3.01A12.558,12.558,0,0,1,1029.093,461.43Z" transform="translate(-996.34 -435.72)" fill="#33588c"/>
    </g>
  </g>
</svg>
