<svg xmlns="http://www.w3.org/2000/svg" xmlns:xlink="http://www.w3.org/1999/xlink" width="62.562" height="58.244" viewBox="0 0 62.562 58.244">
  <defs>
    <filter id="Caminho_20" x="0" y="0" width="62.562" height="35.538" filterUnits="userSpaceOnUse">
      <feOffset dx="2" dy="3" input="SourceAlpha"/>
      <feGaussianBlur result="blur"/>
      <feFlood flood-opacity="0.161"/>
      <feComposite operator="in" in2="blur"/>
      <feComposite in="SourceGraphic"/>
    </filter>
    <filter id="Caminho_21" x="8.651" y="11.176" width="45.246" height="47.068" filterUnits="userSpaceOnUse">
      <feOffset dx="2" dy="3" input="SourceAlpha"/>
      <feGaussianBlur result="blur-2"/>
      <feFlood flood-opacity="0.161"/>
      <feComposite operator="in" in2="blur-2"/>
      <feComposite in="SourceGraphic"/>
    </filter>
  </defs>
  <g id="icon-casa" transform="translate(0 0)">
    <g transform="matrix(1, 0, 0, 1, 0, 0)" filter="url(#Caminho_20)">
      <path id="Caminho_20-2" data-name="Caminho 20" d="M851.68,448.442c.489-.574.942-1.2,1.474-1.712q5.676-5.464,11.378-10.888,4.362-4.161,8.733-8.3c1.93-1.841,3.843-3.706,5.788-5.527a4.124,4.124,0,0,1,5.841.024c2.941,2.785,5.857,5.6,8.786,8.407a2.75,2.75,0,0,0,.27.2c.018-.266.04-.453.04-.641v-7.251c0-1.372.373-1.8,1.555-1.8h6.526c1.116,0,1.513.455,1.513,1.738v16.574A1.279,1.279,0,0,0,904,440.3q3.728,3.516,7.432,7.063a8.306,8.306,0,0,1,.806,1.078v.775c-.792,1.112-1.575,2.23-2.373,3.335-.687.953-1.3,1.037-2.149.236-2.258-2.139-4.5-4.3-6.747-6.445q-2.967-2.836-5.937-5.668-3.064-2.924-6.123-5.841-3.3-3.154-6.594-6.32c-.258-.248-.439-.256-.7,0q-3,2.908-6.042,5.794t-6.014,5.74l-6.042,5.774-6.751,6.445c-.26.248-.512.508-.788.731a1.059,1.059,0,0,1-1.718-.2c-.882-1.166-1.72-2.379-2.576-3.571Z" transform="translate(-851.68 -420.81)" fill="#33588c"/>
    </g>
    <g transform="matrix(1, 0, 0, 1, 0, 0)" filter="url(#Caminho_21)">
      <path id="Caminho_21-2" data-name="Caminho 21" d="M921.063,520.324V503.869c-.214-.012-.371-.026-.528-.026q-4.278,0-8.56-.012c-.425,0-.542.129-.542.618.016,5.045.01,10.091.01,15.136v.784H897.335c-1.742,0-2.7-1.086-2.7-3.08V497.383a1.365,1.365,0,0,1,.489-1.11c3.337-3.132,6.658-6.288,9.988-9.432q4.395-4.153,8.8-8.3c.78-.735,1.553-1.48,2.351-2.242,1.184,1.116,2.338,2.2,3.49,3.293l10.091,9.537q3.873,3.658,7.738,7.335a1.094,1.094,0,0,1,.286.7q.02,10.2,0,20.4a2.51,2.51,0,0,1-2.417,2.786c-4.707.022-9.414,0-14.121,0A2.586,2.586,0,0,1,921.063,520.324Z" transform="translate(-885.98 -465.12)" fill="#33588c"/>
    </g>
  </g>
</svg>
